<svg width="512" height="512" viewBox="0 0 512 512" fill="none" xmlns="http://www.w3.org/2000/svg">
<path d="M256 58L375.908 95.8146L450.016 194.815V317.185L375.908 416.185L256 454L136.092 416.185L61.9845 317.185V194.815L136.092 95.8146L256 58Z" fill="#D50000"/>
<path d="M330.6 202.5C330.6 228.167 323.133 246.833 308.2 258.5C300.267 264.567 291.4 268.883 281.6 271.45L346 355.8L320.8 372.95L248.35 276C244.617 276.233 238.783 276.35 230.85 276.35H218.25V367H184.65V133.2H239.95C257.917 133.2 272.15 134.717 282.65 137.75C293.15 140.55 302.367 145.567 310.3 152.8C323.833 164.7 330.6 181.267 330.6 202.5ZM281.6 239.6C291.633 232.367 296.65 220.933 296.65 205.3C296.65 189.667 292.683 178.117 284.75 170.65C276.583 162.483 260.717 158.4 237.15 158.4H218.25V248.35H231.55C257.217 248.35 273.9 245.433 281.6 239.6Z" fill="white"/>
</svg>
